HIERARCHY
ROOT Hips
{
	OFFSET 0.000000 87.230942 0.000000
	CHANNELS 6 Xposition Yposition Zposition Xrotation Yrotation Zrotation
	JOINT Pelvis
	{
		OFFSET 0.000000 0.000000 0.000000
		CHANNELS 3 Xrotation Yrotation Zrotation
		JOINT LeftUpLeg
		{
			OFFSET 12.017000 -9.376404 -2.439400
			CHANNELS 3 Xrotation Yrotation Zrotation
			JOINT LeftLeg
			{
				OFFSET -0.007312 -32.846973 2.110600
				CHANNELS 3 Xrotation Yrotation Zrotation
				JOINT LeftFoot
				{
					OFFSET 0.007312 -32.065170 -0.570400
					CHANNELS 3 Xrotation Yrotation Zrotation
					JOINT LeftToeBase
					{
						OFFSET 0.728300 -11.045900 13.180700
						CHANNELS 3 Xrotation Yrotation Zrotation
						End Site
						{
							OFFSET 0.000000 17.212589 0.000000
						}
					}
				}
				JOINT LeftPantLeg
				{
					OFFSET 0.002788 -16.709013 -3.143600
					CHANNELS 3 Xrotation Yrotation Zrotation
					End Site
					{
						OFFSET -0.605125 24.528742 0.000000
					}
				}
			}
			JOINT Left_Butt
			{
				OFFSET -6.630234 1.326584 -3.183700
				CHANNELS 3 Xrotation Yrotation Zrotation
				End Site
				{
					OFFSET -0.498041 20.188049 0.000000
				}
			}
		}
		JOINT RightUpLeg
		{
			OFFSET -11.717000 -9.376404 -2.439400
			CHANNELS 3 Xrotation Yrotation Zrotation
			JOINT RightLeg
			{
				OFFSET -0.003241 -32.846912 2.110600
				CHANNELS 3 Xrotation Yrotation Zrotation
				JOINT RightFoot
				{
					OFFSET 0.003241 -32.065136 -0.570500
					CHANNELS 3 Xrotation Yrotation Zrotation
					JOINT RightToeBase
					{
						OFFSET -0.728300 -11.045901 13.180700
						CHANNELS 3 Xrotation Yrotation Zrotation
						End Site
						{
							OFFSET 0.000000 17.212593 0.000000
						}
					}
				}
				JOINT RightPantLeg
				{
					OFFSET 0.008142 -16.708982 -3.143700
					CHANNELS 3 Xrotation Yrotation Zrotation
					End Site
					{
						OFFSET 0.605088 24.528715 0.000000
					}
				}
			}
			JOINT Right_Butt
			{
				OFFSET 6.630732 1.326584 -3.183700
				CHANNELS 3 Xrotation Yrotation Zrotation
				End Site
				{
					OFFSET 0.498015 20.188240 0.000000
				}
			}
		}
	}
	JOINT Spine
	{
		OFFSET -0.062400 7.848404 3.918300
		CHANNELS 3 Xrotation Yrotation Zrotation
		JOINT Spine1
		{
			OFFSET -0.072800 11.422302 0.713400
			CHANNELS 3 Xrotation Yrotation Zrotation
			JOINT Spine2
			{
				OFFSET -0.083200 13.054001 -1.931600
				CHANNELS 3 Xrotation Yrotation Zrotation
				JOINT Neck
				{
					OFFSET -0.092200 14.121796 -5.138800
					CHANNELS 3 Xrotation Yrotation Zrotation
					JOINT Head
					{
						OFFSET 0.000200 10.447403 -0.842000
						CHANNELS 3 Xrotation Yrotation Zrotation
						JOINT Visor
						{
							OFFSET 0.457100 25.671204 16.550400
							CHANNELS 3 Xrotation Yrotation Zrotation
							End Site
							{
								OFFSET 0.000000 26.061493 0.000000
							}
						}
						JOINT HairMidA
						{
							OFFSET 0.459400 31.585403 8.437400
							CHANNELS 3 Xrotation Yrotation Zrotation
							End Site
							{
								OFFSET 0.000000 26.061493 0.000000
							}
						}
						JOINT HairMidB
						{
							OFFSET 0.464000 33.309204 -8.389700
							CHANNELS 3 Xrotation Yrotation Zrotation
							End Site
							{
								OFFSET 0.000000 26.061493 0.000000
							}
						}
						JOINT HairMidC
						{
							OFFSET 0.466600 27.991196 -17.375099
							CHANNELS 3 Xrotation Yrotation Zrotation
							End Site
							{
								OFFSET 0.000000 26.061493 0.000000
							}
						}
						JOINT HairMidD
						{
							OFFSET 0.467700 17.888092 -21.169500
							CHANNELS 3 Xrotation Yrotation Zrotation
							End Site
							{
								OFFSET 0.000000 26.061493 0.000000
							}
						}
						JOINT HairMidE
						{
							OFFSET 5.325700 3.514603 -14.369699
							CHANNELS 3 Xrotation Yrotation Zrotation
							End Site
							{
								OFFSET 0.000000 26.061493 0.000000
							}
						}
						JOINT HairMidF
						{
							OFFSET -4.394100 3.514603 -14.372400
							CHANNELS 3 Xrotation Yrotation Zrotation
							End Site
							{
								OFFSET 0.000000 26.061493 0.000000
							}
						}
						JOINT HairLeftA
						{
							OFFSET 15.319900 25.746506 2.623300
							CHANNELS 3 Xrotation Yrotation Zrotation
							End Site
							{
								OFFSET 0.000000 26.061493 0.000000
							}
						}
						JOINT HairLeftB
						{
							OFFSET 12.619500 29.289398 -8.731499
							CHANNELS 3 Xrotation Yrotation Zrotation
							End Site
							{
								OFFSET 0.000000 26.061493 0.000000
							}
						}
						JOINT HairLeftC
						{
							OFFSET 15.714800 15.959900 2.909800
							CHANNELS 3 Xrotation Yrotation Zrotation
							End Site
							{
								OFFSET 0.000000 26.061493 0.000000
							}
						}
						JOINT HairLeftD
						{
							OFFSET 16.101700 18.437408 -7.553200
							CHANNELS 3 Xrotation Yrotation Zrotation
							End Site
							{
								OFFSET 0.000000 26.061493 0.000000
							}
						}
						JOINT HairLeftE
						{
							OFFSET 9.731900 17.915009 -18.316799
							CHANNELS 3 Xrotation Yrotation Zrotation
							End Site
							{
								OFFSET 0.000000 26.061493 0.000000
							}
						}
						JOINT HairLeftF
						{
							OFFSET 11.204300 4.953598 -9.668100
							CHANNELS 3 Xrotation Yrotation Zrotation
							End Site
							{
								OFFSET 0.000000 26.061493 0.000000
							}
						}
						JOINT HairRightA
						{
							OFFSET -14.397900 25.746307 2.615100
							CHANNELS 3 Xrotation Yrotation Zrotation
							End Site
							{
								OFFSET 0.000000 26.061493 0.000000
							}
						}
						JOINT HairRightB
						{
							OFFSET -11.691200 29.289200 -8.738199
							CHANNELS 3 Xrotation Yrotation Zrotation
							End Site
							{
								OFFSET 0.000000 26.061493 0.000000
							}
						}
						JOINT HairRightC
						{
							OFFSET -14.792900 15.959702 2.901400
							CHANNELS 3 Xrotation Yrotation Zrotation
							End Site
							{
								OFFSET 0.000000 26.061493 0.000000
							}
						}
						JOINT HairRightD
						{
							OFFSET -15.174000 18.437195 -7.561900
							CHANNELS 3 Xrotation Yrotation Zrotation
							End Site
							{
								OFFSET 0.000000 26.061493 0.000000
							}
						}
						JOINT HairRightE
						{
							OFFSET -8.798200 17.914902 -18.322001
							CHANNELS 3 Xrotation Yrotation Zrotation
							End Site
							{
								OFFSET 0.000000 26.061493 0.000000
							}
						}
						JOINT HairRightF
						{
							OFFSET -10.275200 4.953506 -9.674099
							CHANNELS 3 Xrotation Yrotation Zrotation
							End Site
							{
								OFFSET 0.000000 26.061493 0.000000
							}
						}
					}
				}
				JOINT LeftShoulder
				{
					OFFSET 5.133500 7.341202 -1.867600
					CHANNELS 3 Xrotation Yrotation Zrotation
					JOINT LeftArm
					{
						OFFSET 8.072663 0.936867 -2.176600
						CHANNELS 3 Xrotation Yrotation Zrotation
						JOINT LeftForeArm
						{
							OFFSET 31.271999 0.000000 0.000000
							CHANNELS 3 Xrotation Yrotation Zrotation
							JOINT LeftHand
							{
								OFFSET 31.771030 0.000000 0.000000
								CHANNELS 3 Xrotation Yrotation Zrotation
								JOINT LeftHandThumb1
								{
									OFFSET 2.886520 -2.557846 4.416640
									CHANNELS 3 Xrotation Yrotation Zrotation
									JOINT LeftHandThumb2
									{
										OFFSET 2.371025 -1.368912 1.368911
										CHANNELS 3 Xrotation Yrotation Zrotation
										JOINT LeftHandThumb3
										{
											OFFSET 2.243378 -1.295212 1.295213
											CHANNELS 3 Xrotation Yrotation Zrotation
											End Site
											{
												OFFSET -0.332611 2.876945 0.020015
											}
										}
									}
								}
								JOINT LeftHandIndex1
								{
									OFFSET 8.568985 -0.641945 3.119977
									CHANNELS 3 Xrotation Yrotation Zrotation
									JOINT LeftHandIndex2
									{
										OFFSET 3.348503 0.000000 0.000000
										CHANNELS 3 Xrotation Yrotation Zrotation
										JOINT LeftHandIndex3
										{
											OFFSET 3.314552 0.000000 0.000000
											CHANNELS 3 Xrotation Yrotation Zrotation
											End Site
											{
												OFFSET -1.032898 3.075485 0.678796
											}
										}
									}
								}
								JOINT LeftHandMiddle1
								{
									OFFSET 8.124603 0.000000 0.000000
									CHANNELS 3 Xrotation Yrotation Zrotation
									JOINT LeftHandMiddle2
									{
										OFFSET 4.166275 0.000000 0.000000
										CHANNELS 3 Xrotation Yrotation Zrotation
										JOINT LeftHandMiddle3
										{
											OFFSET 3.018135 0.000000 0.000000
											CHANNELS 3 Xrotation Yrotation Zrotation
											End Site
											{
												OFFSET -1.032700 2.767982 0.617226
											}
										}
									}
								}
								JOINT LeftHandRing1
								{
									OFFSET 8.571686 -0.031357 -2.884048
									CHANNELS 3 Xrotation Yrotation Zrotation
									JOINT LeftHandRing2
									{
										OFFSET 3.671181 0.000000 0.000000
										CHANNELS 3 Xrotation Yrotation Zrotation
										JOINT LeftHandRing3
										{
											OFFSET 2.728851 0.000000 0.000000
											CHANNELS 3 Xrotation Yrotation Zrotation
											End Site
											{
												OFFSET -0.815796 2.539223 0.577389
											}
										}
									}
								}
								JOINT LeftHandPinky1
								{
									OFFSET 7.854515 -0.675232 -5.213020
									CHANNELS 3 Xrotation Yrotation Zrotation
									JOINT LeftHandPinky2
									{
										OFFSET 3.068596 0.000000 0.000000
										CHANNELS 3 Xrotation Yrotation Zrotation
										JOINT LeftHandPinky3
										{
											OFFSET 2.396042 0.000000 0.000000
											CHANNELS 3 Xrotation Yrotation Zrotation
											End Site
											{
												OFFSET -0.524597 2.267998 0.567429
											}
										}
									}
								}
							}
							JOINT LeftSleeve
							{
								OFFSET 19.684509 -0.200119 0.476146
								CHANNELS 3 Xrotation Yrotation Zrotation
								End Site
								{
									OFFSET -0.031017 25.731133 -0.002868
								}
							}
						}
					}
				}
				JOINT RightShoulder
				{
					OFFSET -4.395900 7.341202 -1.870200
					CHANNELS 3 Xrotation Yrotation Zrotation
					JOINT RightArm
					{
						OFFSET -8.071453 0.936867 -2.181100
						CHANNELS 3 Xrotation Yrotation Zrotation
						JOINT RightForeArm
						{
							OFFSET -31.272011 0.000000 0.000000
							CHANNELS 3 Xrotation Yrotation Zrotation
							JOINT RightHand
							{
								OFFSET -31.771019 0.000000 0.000000
								CHANNELS 3 Xrotation Yrotation Zrotation
								JOINT RightHandThumb1
								{
									OFFSET -2.886520 -2.557808 4.416626
									CHANNELS 3 Xrotation Yrotation Zrotation
									JOINT RightHandThumb2
									{
										OFFSET -2.371056 -1.368927 1.368928
										CHANNELS 3 Xrotation Yrotation Zrotation
										JOINT RightHandThumb3
										{
											OFFSET -2.243362 -1.295204 1.295206
											CHANNELS 3 Xrotation Yrotation Zrotation
											End Site
											{
												OFFSET 0.332642 2.876938 0.020047
											}
										}
									}
								}
								JOINT RightHandIndex1
								{
									OFFSET -8.568993 -0.641953 3.120017
									CHANNELS 3 Xrotation Yrotation Zrotation
									JOINT RightHandIndex2
									{
										OFFSET -3.348518 0.000000 0.000000
										CHANNELS 3 Xrotation Yrotation Zrotation
										JOINT RightHandIndex3
										{
											OFFSET -3.314552 0.000000 0.000000
											CHANNELS 3 Xrotation Yrotation Zrotation
											End Site
											{
												OFFSET 1.032898 3.075478 0.678804
											}
										}
									}
								}
								JOINT RightHandMiddle1
								{
									OFFSET -8.124588 0.000000 0.000000
									CHANNELS 3 Xrotation Yrotation Zrotation
									JOINT RightHandMiddle2
									{
										OFFSET -4.166275 0.000000 0.000000
										CHANNELS 3 Xrotation Yrotation Zrotation
										JOINT RightHandMiddle3
										{
											OFFSET -3.018097 0.000000 0.000000
											CHANNELS 3 Xrotation Yrotation Zrotation
											End Site
											{
												OFFSET 1.032700 2.767937 0.617197
											}
										}
									}
								}
								JOINT RightHandRing1
								{
									OFFSET -8.571747 -0.031349 -2.884061
									CHANNELS 3 Xrotation Yrotation Zrotation
									JOINT RightHandRing2
									{
										OFFSET -3.671204 0.000000 0.000000
										CHANNELS 3 Xrotation Yrotation Zrotation
										JOINT RightHandRing3
										{
											OFFSET -2.728874 0.000000 0.000000
											CHANNELS 3 Xrotation Yrotation Zrotation
											End Site
											{
												OFFSET 0.815804 2.539261 0.577413
											}
										}
									}
								}
								JOINT RightHandPinky1
								{
									OFFSET -7.854561 -0.675247 -5.212970
									CHANNELS 3 Xrotation Yrotation Zrotation
									JOINT RightHandPinky2
									{
										OFFSET -3.068550 0.000000 0.000000
										CHANNELS 3 Xrotation Yrotation Zrotation
										JOINT RightHandPinky3
										{
											OFFSET -2.395981 0.000000 0.000000
											CHANNELS 3 Xrotation Yrotation Zrotation
											End Site
											{
												OFFSET 0.524605 2.267952 0.567413
											}
										}
									}
								}
							}
							JOINT RightSleeve
							{
								OFFSET -19.684753 -0.200165 0.476065
								CHANNELS 3 Xrotation Yrotation Zrotation
								End Site
								{
									OFFSET 0.031342 25.731255 -0.002917
								}
							}
						}
					}
				}
				JOINT Hood
				{
					OFFSET 0.369700 14.447800 -5.317800
					CHANNELS 3 Xrotation Yrotation Zrotation
					JOINT Hood1
					{
						OFFSET 0.001700 -5.553802 -5.895100
						CHANNELS 3 Xrotation Yrotation Zrotation
						JOINT Hood2
						{
							OFFSET -0.000200 -8.380501 0.763600
							CHANNELS 3 Xrotation Yrotation Zrotation
							End Site
							{
								OFFSET 0.000000 8.415215 0.000000
							}
						}
					}
				}
				JOINT Left_Breast
				{
					OFFSET 5.682500 3.120102 3.188800
					CHANNELS 3 Xrotation Yrotation Zrotation
					End Site
					{
						OFFSET 0.000000 10.528564 0.000000
					}
				}
				JOINT Right_Breast
				{
					OFFSET -4.947600 3.120102 3.185900
					CHANNELS 3 Xrotation Yrotation Zrotation
					End Site
					{
						OFFSET 0.000000 10.528564 0.000000
					}
				}
				JOINT Whistle
				{
					OFFSET 0.368200 11.471298 0.095400
					CHANNELS 3 Xrotation Yrotation Zrotation
					JOINT Whistle1
					{
						OFFSET -0.002000 -6.349899 7.479800
						CHANNELS 3 Xrotation Yrotation Zrotation
						JOINT Whistle2
						{
							OFFSET -0.001300 -8.217598 4.717600
							CHANNELS 3 Xrotation Yrotation Zrotation
							End Site
							{
								OFFSET 0.000000 9.475479 0.000000
							}
						}
					}
				}
			}
		}
		JOINT Belly
		{
			OFFSET 0.212400 1.593002 3.163700
			CHANNELS 3 Xrotation Yrotation Zrotation
			End Site
			{
				OFFSET 0.000000 7.496635 0.000000
			}
		}
	}
	JOINT FitGrandmaFacialAnim_Joint
	{
		OFFSET 1.150000 -86.211197 -1.220100
		CHANNELS 3 Xrotation Yrotation Zrotation
		End Site
		{
			OFFSET 0.000000 31.666618 0.000000
		}
	}
}
MOTION
Frames: 4
Frame Time: 0.016667
-1.762200 74.326996 25.812559 5.493572 -411.530099 7.980851 -0.000000 -0.000001 0.000000 3.000056 13.200325 -8.909570 48.886768 -9.195856 -8.037984 -40.686047 -10.594561 17.098508 0.000000 -0.000002 -0.000000 -0.000003 -0.000002 0.000002 -0.000000 0.000000 -0.000000 -50.437535 -1.004872 -0.513348 17.525598 10.215336 3.146954 -7.562460 2.131081 17.736681 -0.000003 -0.000002 -0.000001 -0.000001 -0.000001 -0.000001 0.000005 0.000000 0.000002 11.648824 -6.344933 4.539297 7.182705 -7.370596 1.871823 -3.934148 -6.959413 2.025277 7.764872 41.421515 -11.305566 0.258113 26.018803 -6.977977 0.000000 0.000000 0.000001 0.000000 0.000000 0.000001 0.000000 0.000000 0.000001 0.000000 0.000000 0.000001 0.000000 0.000000 0.000001 0.000000 0.000000 0.000001 0.000000 0.000000 0.000001 0.000000 0.000000 0.000001 0.000000 0.000000 0.000001 0.000000 0.000000 0.000001 0.000000 0.000000 0.000001 0.000000 0.000000 0.000001 0.000000 0.000000 0.000001 0.000000 0.000000 0.000001 0.000000 0.000000 0.000001 0.000000 0.000000 0.000001 0.000000 0.000000 0.000001 0.000000 0.000000 0.000001 0.000000 0.000000 0.000001 1.383212 -5.637208 -0.733873 -2.266009 -2.878861 -36.679468 -0.000823 -20.848203 -3.050614 -46.535534 -14.688317 25.139512 20.995595 -10.306039 6.187771 3.717727 17.385545 -9.270250 0.000000 0.000002 -0.000000 12.155543 -5.009003 -19.357550 -1.752625 1.408421 -24.867491 0.000002 0.000002 -0.000001 2.495179 2.549564 -39.191998 -1.398726 0.248719 -47.542946 0.000000 0.000001 -0.000003 0.949988 6.178082 -48.371680 -2.316286 1.003950 -53.554605 0.000001 -0.000002 -0.000002 -1.286405 4.834440 -53.465290 -2.521702 1.318777 -48.312199 -0.000003 0.000004 0.000003 -0.000001 0.000001 0.000003 9.987221 -5.269196 3.687166 4.872920 -1.636423 76.375503 -10.545810 13.289822 4.346989 -27.527565 -8.499058 -15.910811 55.149536 18.649557 -29.698267 -0.442560 -14.180557 7.313152 0.000002 -0.000002 -0.000002 5.673387 7.585025 36.844144 1.050492 3.824511 68.900237 0.000000 -0.000000 0.000001 -0.125722 1.886088 45.000776 -1.168976 3.204698 68.417650 -0.000000 0.000002 -0.000001 -5.311987 1.216635 58.508787 -0.745219 1.667569 48.011281 0.000002 0.000000 -0.000001 -7.756826 -9.376450 47.263997 -0.526039 1.541587 45.600542 -0.000002 -0.000001 0.000001 -0.000000 0.000001 0.000000 0.000002 0.000001 -0.000000 0.000002 0.000001 -0.000000 0.000002 0.000001 -0.000000 0.000002 0.000001 -0.000000 0.000002 0.000001 -0.000000 0.000002 0.000001 -0.000000 -0.000000 0.000001 -0.000000 -0.000000 0.000001 -0.000000 0.000002 0.000001 -0.000001 -0.000000 -0.000001 0.000000 
-0.752384 74.663864 24.745323 5.596424 -412.759424 7.548459 0.000000 0.000002 0.000000 3.996736 13.063313 -9.016879 45.375279 -8.595138 -7.987720 -43.391423 -10.076661 15.881909 0.000000 -0.000002 0.000000 0.000001 -0.000001 0.000004 0.000000 0.000000 0.000000 -49.908520 -2.028748 -1.053117 16.981462 10.954041 4.168941 -4.744809 2.986884 18.645313 -0.000002 0.000001 0.000000 -0.000003 -0.000000 0.000000 -0.000003 -0.000002 -0.000002 11.514481 -6.143494 4.575250 6.897512 -6.951606 1.878611 -4.209821 -6.549574 2.113404 6.754094 41.480449 -10.680602 1.712230 25.842644 -7.475039 0.000000 -0.000000 0.000000 0.000000 -0.000000 0.000000 0.000000 -0.000000 0.000000 0.000000 -0.000000 0.000000 0.000000 -0.000000 0.000000 0.000000 -0.000000 0.000000 0.000000 -0.000000 0.000000 0.000000 -0.000000 0.000000 0.000000 -0.000000 0.000000 0.000000 -0.000000 0.000000 0.000000 -0.000000 0.000000 0.000000 -0.000000 0.000000 0.000000 -0.000000 0.000000 0.000000 -0.000000 0.000000 0.000000 -0.000000 0.000000 0.000000 -0.000000 0.000000 0.000000 -0.000000 0.000000 0.000000 -0.000000 0.000000 0.000000 -0.000000 0.000000 1.270527 -5.316212 -0.766513 -4.829681 -2.597518 -36.315098 -0.000758 -23.380839 -2.655179 -43.580012 -16.603147 22.958417 20.993669 -10.305591 6.186539 3.715739 17.385338 -9.269076 0.000001 0.000001 0.000001 12.155550 -5.009012 -19.357502 -1.752647 1.408474 -24.867532 -0.000001 -0.000003 -0.000004 2.495536 2.548923 -39.191936 -1.398893 0.248774 -47.542942 -0.000000 0.000000 -0.000003 0.950618 6.178149 -48.371738 -2.316270 1.003904 -53.554588 0.000001 -0.000004 -0.000003 -1.286424 4.834465 -53.465249 -2.521173 1.318759 -48.312288 -0.000000 0.000001 -0.000000 -0.000000 -0.000001 -0.000002 10.009423 -5.246988 3.894579 5.281033 -0.456760 74.450353 -9.017189 16.459788 6.074813 -27.199898 -7.979322 -16.432202 55.149533 18.649558 -29.698270 -0.442552 -14.180559 7.313154 0.000003 0.000001 0.000000 5.673386 7.585022 36.844147 1.050490 3.824507 68.900237 -0.000001 0.000001 0.000005 -0.125723 1.886085 45.000783 -1.168978 3.204699 68.417650 -0.000001 -0.000000 -0.000001 -5.311990 1.216633 58.508787 -0.745214 1.667567 48.011278 -0.000000 -0.000002 0.000002 -7.756826 -9.376456 47.264001 -0.526042 1.541594 45.600546 0.000000 -0.000000 0.000002 -0.000000 -0.000002 -0.000000 0.000001 -0.000002 0.000000 0.000001 -0.000002 0.000000 0.000001 -0.000002 0.000000 0.000001 -0.000002 0.000000 0.000001 -0.000002 0.000000 0.000001 -0.000002 -0.000000 -0.000000 -0.000002 -0.000000 -0.000000 -0.000002 -0.000000 -0.000001 -0.000000 -0.000000 0.000000 0.000002 0.000000 
0.181338 75.067200 23.719797 5.853465 -413.699859 7.793960 -0.000000 -0.000000 0.000000 4.371870 12.779699 -9.527577 42.585512 -7.775428 -7.929893 -44.717628 -9.117728 14.365898 -0.000000 -0.000002 -0.000000 0.000001 -0.000000 0.000001 0.000001 0.000005 -0.000001 -50.116745 -1.728242 -1.372190 18.319433 11.050246 3.840747 -1.904066 3.675498 18.373412 -0.000002 -0.000002 0.000001 -0.000002 -0.000000 -0.000001 0.000006 -0.000000 0.000001 11.424700 -5.966809 4.554956 6.702439 -6.646077 1.735215 -4.396965 -6.222354 2.032138 5.775674 41.621131 -10.698906 2.687455 25.531735 -7.780068 0.000001 0.000000 -0.000000 0.000001 0.000000 -0.000000 0.000001 0.000000 -0.000000 0.000001 0.000000 -0.000000 0.000001 0.000000 -0.000000 0.000001 0.000000 -0.000000 0.000001 0.000000 -0.000000 0.000001 0.000000 -0.000000 0.000001 0.000000 -0.000000 0.000001 0.000000 -0.000000 0.000001 0.000000 -0.000000 0.000001 0.000000 -0.000000 0.000001 0.000000 -0.000000 0.000001 0.000000 -0.000000 0.000001 0.000000 -0.000000 0.000001 0.000000 -0.000000 0.000001 0.000000 -0.000000 0.000001 0.000000 -0.000000 0.000001 0.000000 -0.000000 1.193837 -5.438138 -0.666393 -7.183523 -1.982265 -36.296172 -0.000747 -25.615130 -2.431700 -40.197207 -19.135378 21.319322 20.991782 -10.305301 6.185322 3.713718 17.384939 -9.267932 0.000000 0.000001 -0.000000 12.155570 -5.008996 -19.357559 -1.752649 1.408479 -24.867491 -0.000001 0.000001 0.000003 2.495730 2.548423 -39.191885 -1.399385 0.248721 -47.542939 0.000001 0.000001 -0.000001 0.951322 6.178134 -48.371823 -2.316277 1.003934 -53.554642 0.000000 -0.000001 -0.000000 -1.286394 4.834469 -53.465286 -2.520854 1.318739 -48.312237 -0.000001 0.000001 0.000001 -0.000000 0.000000 0.000003 10.002476 -5.247368 3.791885 5.106710 1.244168 72.693963 -7.342041 18.797408 7.476811 -27.297751 -7.313752 -16.910830 55.149533 18.649557 -29.698270 -0.442551 -14.180555 7.313154 0.000000 -0.000001 -0.000002 5.673387 7.585025 36.844147 1.050492 3.824507 68.900237 0.000000 -0.000002 0.000008 -0.125723 1.886090 45.000776 -1.168971 3.204699 68.417650 0.000000 -0.000001 -0.000004 -5.311989 1.216633 58.508780 -0.745216 1.667570 48.011275 -0.000002 -0.000005 -0.000002 -7.756828 -9.376452 47.263994 -0.526037 1.541589 45.600542 -0.000001 -0.000002 0.000001 -0.000002 0.000001 0.000001 0.000001 -0.000001 0.000000 0.000001 -0.000001 0.000000 0.000001 -0.000001 0.000000 0.000001 -0.000001 0.000000 0.000001 -0.000001 0.000000 0.000001 -0.000001 0.000000 -0.000001 0.000001 0.000000 -0.000001 0.000001 0.000000 -0.000001 -0.000001 0.000000 -0.000000 -0.000000 0.000000 
1.016814 75.441330 22.741165 6.131436 -414.312773 8.232719 -0.000000 -0.000004 0.000000 4.260637 11.996099 -10.089639 40.421842 -7.197092 -7.533429 -45.705949 -7.916679 12.301952 -0.000000 -0.000002 0.000000 0.000001 0.000001 -0.000000 -0.000000 0.000002 -0.000000 -50.618006 -0.675030 -1.654715 20.503362 10.992936 2.651925 1.171547 4.161145 19.255645 0.000000 -0.000003 -0.000000 -0.000000 0.000000 0.000000 -0.000002 -0.000001 -0.000001 11.392720 -5.808812 4.506036 6.628106 -6.390921 1.563484 -4.464400 -5.939060 1.913257 4.365862 41.687435 -10.666462 3.702052 25.152701 -8.050837 0.000000 0.000000 -0.000000 0.000000 0.000000 -0.000000 0.000000 0.000000 -0.000000 0.000000 0.000000 -0.000000 0.000000 0.000000 -0.000000 0.000000 0.000000 -0.000000 0.000000 0.000000 -0.000000 0.000000 0.000000 -0.000000 0.000000 0.000000 -0.000000 0.000000 0.000000 -0.000000 0.000000 0.000000 -0.000000 0.000000 0.000000 -0.000000 0.000000 0.000000 -0.000000 0.000000 0.000000 -0.000000 0.000000 0.000000 -0.000000 0.000000 0.000000 -0.000000 0.000000 0.000000 -0.000000 0.000000 0.000000 -0.000000 0.000000 0.000000 -0.000000 1.126230 -5.641846 -0.722992 -9.346839 -1.665558 -36.045319 -0.000774 -28.424336 -2.537056 -36.837297 -19.810965 22.805378 20.990326 -10.305138 6.184460 3.711909 17.384486 -9.266748 0.000001 0.000001 -0.000000 12.155585 -5.008983 -19.357509 -1.752633 1.408421 -24.867518 0.000001 -0.000002 0.000004 2.495622 2.548036 -39.191861 -1.400289 0.248767 -47.542918 0.000000 -0.000003 -0.000004 0.951989 6.178112 -48.371943 -2.316342 1.003947 -53.554622 -0.000000 -0.000003 -0.000001 -1.286386 4.834431 -53.465273 -2.520847 1.318764 -48.312291 -0.000000 0.000001 0.000001 -0.000000 0.000000 0.000000 10.045357 -5.469088 3.772900 4.495823 3.336465 70.727647 -5.588882 20.793987 8.779318 -27.367694 -6.389280 -16.786214 55.149533 18.649558 -29.698267 -0.442556 -14.180555 7.313149 0.000000 -0.000001 -0.000002 5.673385 7.585027 36.844144 1.050493 3.824509 68.900237 -0.000001 0.000000 0.000001 -0.125722 1.886088 45.000783 -1.168973 3.204698 68.417643 -0.000001 0.000001 -0.000002 -5.311987 1.216640 58.508780 -0.745214 1.667570 48.011278 0.000001 -0.000003 -0.000001 -7.756829 -9.376452 47.263994 -0.526041 1.541589 45.600542 0.000001 0.000000 0.000002 -0.000000 0.000001 0.000000 -0.000002 -0.000000 0.000000 -0.000002 -0.000000 0.000000 -0.000002 -0.000000 0.000000 -0.000002 -0.000000 0.000000 -0.000002 -0.000000 0.000000 -0.000002 -0.000000 -0.000000 -0.000003 -0.000000 0.000000 -0.000003 -0.000000 0.000000 -0.000000 -0.000002 -0.000000 -0.000000 -0.000004 0.000000 
